<svg width="223" height="221" viewBox="0 0 223 221" fill="none" xmlns="http://www.w3.org/2000/svg">
<g filter="url(#filter0_d_19_5)">
<rect width="150" height="150" rx="17" transform="matrix(0.963938 0.266125 -0.277184 0.960817 59.9995 18.1738)" fill="#22BDFF"/>
<rect x="0.343377" y="0.613471" width="149" height="149" rx="16.5" transform="matrix(0.963938 0.266125 -0.277184 0.960817 60.1819 18.1065)" stroke="black"/>
</g>
<g filter="url(#filter1_d_19_5)">
<path d="M58.9216 144.457L77.896 48.9927L173.105 75.2781L138.262 166.362L95.3629 166.603L58.9216 144.457Z" fill="#1172B8"/>
<path d="M172.442 75.6137L137.917 165.864L95.5066 166.102L59.4814 144.21L78.2817 49.6178L172.442 75.6137Z" stroke="black"/>
</g>
<path d="M162.349 80.8835L131.062 159.947L97.6442 160.496L123.691 70.2106L162.349 80.8835Z" fill="#33AADD" stroke="black"/>
<path d="M150.617 91.7431L145.233 103.454L117.054 105.64L116.95 106.617L140.213 113.04L126.358 146.57L100.888 147.443L79.6439 133.673L82.889 115.34L93.8642 118.37L93.1857 127.842L93.1647 128.133L93.4086 128.291L104.234 135.308L104.366 135.393L104.523 135.387L117.501 134.943L117.82 134.931L117.948 134.639L124.237 120.263L124.466 119.739L84.6592 108.749L86.3301 95.9998L120.321 95.4422L120.456 94.4634L89.1235 85.813L90.2623 75.0803L150.617 91.7431Z" fill="white" stroke="black"/>
<defs>
<filter id="filter0_d_19_5" x="0.46582" y="0.0786133" width="222.081" height="220.231" filterUnits="userSpaceOnUse" color-interpolation-filters="sRGB">
<feFlood flood-opacity="0" result="BackgroundImageFix"/>
<feColorMatrix in="SourceAlpha" type="matrix" values="0 0 0 0 0 0 0 0 0 0 0 0 0 0 0 0 0 0 127 0" result="hardAlpha"/>
<feMorphology radius="11" operator="dilate" in="SourceAlpha" result="effect1_dropShadow_19_5"/>
<feOffset/>
<feGaussianBlur stdDeviation="5.5"/>
<feComposite in2="hardAlpha" operator="out"/>
<feColorMatrix type="matrix" values="0 0 0 0 0.673021 0 0 0 0 0.8875 0 0 0 0 0.876776 0 0 0 0.25 0"/>
<feBlend mode="normal" in2="BackgroundImageFix" result="effect1_dropShadow_19_5"/>
<feBlend mode="normal" in="SourceGraphic" in2="effect1_dropShadow_19_5" result="shape"/>
</filter>
<filter id="filter1_d_19_5" x="37.9214" y="27.9927" width="156.184" height="159.61" filterUnits="userSpaceOnUse" color-interpolation-filters="sRGB">
<feFlood flood-opacity="0" result="BackgroundImageFix"/>
<feColorMatrix in="SourceAlpha" type="matrix" values="0 0 0 0 0 0 0 0 0 0 0 0 0 0 0 0 0 0 127 0" result="hardAlpha"/>
<feMorphology radius="16" operator="dilate" in="SourceAlpha" result="effect1_dropShadow_19_5"/>
<feOffset/>
<feGaussianBlur stdDeviation="2.5"/>
<feComposite in2="hardAlpha" operator="out"/>
<feColorMatrix type="matrix" values="0 0 0 0 1 0 0 0 0 1 0 0 0 0 1 0 0 0 0.25 0"/>
<feBlend mode="normal" in2="BackgroundImageFix" result="effect1_dropShadow_19_5"/>
<feBlend mode="normal" in="SourceGraphic" in2="effect1_dropShadow_19_5" result="shape"/>
</filter>
</defs>
</svg>
