<svg width="276" height="271" viewBox="0 0 276 271" fill="none" xmlns="http://www.w3.org/2000/svg">
<g filter="url(#filter0_d_17_27)">
<g filter="url(#filter1_d_17_27)">
<rect width="162.61" height="167.126" rx="32.1257" transform="matrix(0.965796 -0.275562 0.273454 0.957066 36.5234 77.9585)" fill="#F8E6C9"/>
<rect x="0.619625" y="0.340752" width="161.61" height="166.126" rx="31.6257" transform="matrix(0.965796 -0.275562 0.273454 0.957066 36.4515 78.1439)" stroke="black"/>
</g>
<g filter="url(#filter2_d_17_27)">
<path d="M108.719 200.654L68.292 92.6104L174.333 62.3547L197.087 175.441L156.694 201.315L108.719 200.654Z" fill="#E44D26"/>
<path d="M173.947 62.9824L196.527 175.207L156.55 200.814L109.071 200.16L68.9512 92.9398L173.947 62.9824Z" stroke="black"/>
</g>
<g filter="url(#filter3_d_17_27)">
<path d="M167.517 74.0656L123.222 86.7041L154.181 195.058L186.458 173.89L167.517 74.0656Z" fill="#F16529"/>
<path d="M167.126 74.6949L185.902 173.658L154.477 194.267L123.841 87.0449L167.126 74.6949Z" stroke="black"/>
</g>
<g filter="url(#filter4_d_17_27)">
<path d="M109.826 150.127L93.3496 109.178L161.806 89.6456L163.407 103.605L110.408 118.727L117.059 133.647L165.641 119.786L173.285 163.255L149.324 179.702L120.286 178.377L111.73 156.791L124.98 153.011L130.362 163.488L144.881 164.151L156.861 155.928L153.992 137.525L109.826 150.127Z" fill="white"/>
<path d="M161.374 90.2865L162.859 103.243L109.715 118.406L109.948 118.93L116.6 133.85L116.777 134.246L165.242 120.417L172.735 163.028L149.179 179.196L120.635 177.894L112.399 157.118L124.72 153.603L129.915 163.716L130.046 163.973L130.337 163.986L144.856 164.649L145.025 164.657L145.166 164.56L157.146 156.336L157.406 156.158L157.358 155.849L154.488 137.447L154.401 136.891L110.125 149.524L94.0221 109.503L161.374 90.2865Z" stroke="black"/>
</g>
</g>
<defs>
<filter id="filter0_d_17_27" x="36.0806" y="32.7446" width="203.635" height="205.569" filterUnits="userSpaceOnUse" color-interpolation-filters="sRGB">
<feFlood flood-opacity="0" result="BackgroundImageFix"/>
<feColorMatrix in="SourceAlpha" type="matrix" values="0 0 0 0 0 0 0 0 0 0 0 0 0 0 0 0 0 0 127 0" result="hardAlpha"/>
<feMorphology radius="8" operator="dilate" in="SourceAlpha" result="effect1_dropShadow_17_27"/>
<feOffset/>
<feComposite in2="hardAlpha" operator="out"/>
<feColorMatrix type="matrix" values="0 0 0 0 1 0 0 0 0 0.55 0 0 0 0 0.55 0 0 0 0.46 0"/>
<feBlend mode="normal" in2="BackgroundImageFix" result="effect1_dropShadow_17_27"/>
<feBlend mode="normal" in="SourceGraphic" in2="effect1_dropShadow_17_27" result="shape"/>
</filter>
<filter id="filter1_d_17_27" x="33.0806" y="29.7446" width="209.635" height="211.569" filterUnits="userSpaceOnUse" color-interpolation-filters="sRGB">
<feFlood flood-opacity="0" result="BackgroundImageFix"/>
<feColorMatrix in="SourceAlpha" type="matrix" values="0 0 0 0 0 0 0 0 0 0 0 0 0 0 0 0 0 0 127 0" result="hardAlpha"/>
<feMorphology radius="7" operator="dilate" in="SourceAlpha" result="effect1_dropShadow_17_27"/>
<feOffset/>
<feGaussianBlur stdDeviation="2"/>
<feComposite in2="hardAlpha" operator="out"/>
<feColorMatrix type="matrix" values="0 0 0 0 0.966667 0 0 0 0 0.455139 0 0 0 0 0.455139 0 0 0 0.25 0"/>
<feBlend mode="normal" in2="BackgroundImageFix" result="effect1_dropShadow_17_27"/>
<feBlend mode="normal" in="SourceGraphic" in2="effect1_dropShadow_17_27" result="shape"/>
</filter>
<filter id="filter2_d_17_27" x="64.292" y="58.3545" width="136.795" height="146.96" filterUnits="userSpaceOnUse" color-interpolation-filters="sRGB">
<feFlood flood-opacity="0" result="BackgroundImageFix"/>
<feColorMatrix in="SourceAlpha" type="matrix" values="0 0 0 0 0 0 0 0 0 0 0 0 0 0 0 0 0 0 127 0" result="hardAlpha"/>
<feOffset/>
<feGaussianBlur stdDeviation="2"/>
<feComposite in2="hardAlpha" operator="out"/>
<feColorMatrix type="matrix" values="0 0 0 0 0 0 0 0 0 0 0 0 0 0 0 0 0 0 0.25 0"/>
<feBlend mode="normal" in2="BackgroundImageFix" result="effect1_dropShadow_17_27"/>
<feBlend mode="normal" in="SourceGraphic" in2="effect1_dropShadow_17_27" result="shape"/>
</filter>
<filter id="filter3_d_17_27" x="119.222" y="70.0654" width="71.2363" height="128.992" filterUnits="userSpaceOnUse" color-interpolation-filters="sRGB">
<feFlood flood-opacity="0" result="BackgroundImageFix"/>
<feColorMatrix in="SourceAlpha" type="matrix" values="0 0 0 0 0 0 0 0 0 0 0 0 0 0 0 0 0 0 127 0" result="hardAlpha"/>
<feOffset/>
<feGaussianBlur stdDeviation="2"/>
<feComposite in2="hardAlpha" operator="out"/>
<feColorMatrix type="matrix" values="0 0 0 0 0 0 0 0 0 0 0 0 0 0 0 0 0 0 0.25 0"/>
<feBlend mode="normal" in2="BackgroundImageFix" result="effect1_dropShadow_17_27"/>
<feBlend mode="normal" in="SourceGraphic" in2="effect1_dropShadow_17_27" result="shape"/>
</filter>
<filter id="filter4_d_17_27" x="89.3496" y="85.6455" width="87.9351" height="98.0562" filterUnits="userSpaceOnUse" color-interpolation-filters="sRGB">
<feFlood flood-opacity="0" result="BackgroundImageFix"/>
<feColorMatrix in="SourceAlpha" type="matrix" values="0 0 0 0 0 0 0 0 0 0 0 0 0 0 0 0 0 0 127 0" result="hardAlpha"/>
<feOffset/>
<feGaussianBlur stdDeviation="2"/>
<feComposite in2="hardAlpha" operator="out"/>
<feColorMatrix type="matrix" values="0 0 0 0 0 0 0 0 0 0 0 0 0 0 0 0 0 0 0.25 0"/>
<feBlend mode="normal" in2="BackgroundImageFix" result="effect1_dropShadow_17_27"/>
<feBlend mode="normal" in="SourceGraphic" in2="effect1_dropShadow_17_27" result="shape"/>
</filter>
</defs>
</svg>
