<svg width="223" height="220" viewBox="0 0 223 220" fill="none" xmlns="http://www.w3.org/2000/svg">
<g filter="url(#filter0_d_17_26)">
<ellipse cx="111.5" cy="109.75" rx="80.5" ry="78.75" fill="url(#paint0_radial_17_26)"/>
<path d="M111.5 26.0459C158.592 26.0459 196.954 63.4196 196.954 109.75C196.954 156.08 158.592 193.454 111.5 193.454C64.4083 193.454 26.0459 156.08 26.0459 109.75C26.0459 63.4196 64.4083 26.0459 111.5 26.0459Z" stroke="#FF8102" stroke-width="9.90769"/>
</g>
<path d="M160.787 68.6899H80.5965C75.8086 68.6899 71.9272 72.5713 71.9272 77.3592V155.429C71.9272 160.217 75.8086 164.099 80.5965 164.099H160.787C165.575 164.099 169.456 160.217 169.456 155.429V77.3592C169.456 72.5713 165.575 68.6899 160.787 68.6899Z" fill="#F5DE19"/>
<path d="M137.443 143.228C138.273 144.879 139.565 146.267 141.167 147.232C142.769 148.196 144.617 148.698 146.499 148.68C150.295 148.68 152.723 146.823 152.723 144.25C152.723 141.184 150.229 140.086 146.049 138.297L143.758 137.337C137.139 134.58 132.751 131.128 132.751 123.829C132.751 117.107 137.975 111.985 146.171 111.985C148.825 111.798 151.475 112.379 153.793 113.655C156.111 114.932 157.993 116.848 159.205 119.165L152.041 123.645C151.574 122.497 150.761 121.514 149.711 120.828C148.66 120.141 147.421 119.783 146.157 119.802C145.606 119.748 145.05 119.807 144.523 119.975C143.996 120.143 143.511 120.417 143.099 120.778C142.686 121.14 142.355 121.581 142.127 122.075C141.898 122.569 141.778 123.104 141.772 123.645C141.772 126.334 143.475 127.424 147.408 129.097L149.7 130.058C157.488 133.326 161.891 136.655 161.891 144.141C161.891 152.213 155.409 156.636 146.704 156.636C143.313 156.848 139.931 156.094 136.967 154.467C134.004 152.84 131.585 150.409 130.002 147.467L137.443 143.228ZM105.066 144.005C106.505 146.503 107.815 148.615 110.963 148.615C113.973 148.615 115.875 147.463 115.875 142.983V112.496H125.039V143.102C125.039 152.384 119.466 156.609 111.354 156.609C108.486 156.762 105.638 156.063 103.184 154.604C100.731 153.144 98.7858 150.992 97.6055 148.431L105.066 144.005Z" fill="black"/>
<defs>
<filter id="filter0_d_17_26" x="0.0384398" y="0.0384398" width="222.923" height="219.423" filterUnits="userSpaceOnUse" color-interpolation-filters="sRGB">
<feFlood flood-opacity="0" result="BackgroundImageFix"/>
<feColorMatrix in="SourceAlpha" type="matrix" values="0 0 0 0 0 0 0 0 0 0 0 0 0 0 0 0 0 0 127 0" result="hardAlpha"/>
<feMorphology radius="12.3846" operator="dilate" in="SourceAlpha" result="effect1_dropShadow_17_26"/>
<feOffset/>
<feGaussianBlur stdDeviation="4.33462"/>
<feComposite in2="hardAlpha" operator="out"/>
<feColorMatrix type="matrix" values="0 0 0 0 0.954167 0 0 0 0 0.868358 0 0 0 0 0.218663 0 0 0 0.25 0"/>
<feBlend mode="normal" in2="BackgroundImageFix" result="effect1_dropShadow_17_26"/>
<feBlend mode="normal" in="SourceGraphic" in2="effect1_dropShadow_17_26" result="shape"/>
</filter>
<radialGradient id="paint0_radial_17_26" cx="0" cy="0" r="1" gradientUnits="userSpaceOnUse" gradientTransform="translate(111.5 109.75) rotate(90) scale(78.75 80.5)">
<stop stop-color="#FF0000"/>
<stop offset="1" stop-color="#FF6200"/>
</radialGradient>
</defs>
</svg>
