<svg width="67" height="24" viewBox="0 0 67 24" fill="none" xmlns="http://www.w3.org/2000/svg">
<path d="M0.642046 23V1.18182H3.15625V9.23579H3.36932C3.55398 8.9517 3.80966 8.58949 4.13636 8.14915C4.47017 7.7017 4.94602 7.30398 5.56392 6.95597C6.18892 6.60085 7.03409 6.4233 8.09943 6.4233C9.47727 6.4233 10.6918 6.76776 11.7429 7.45668C12.794 8.1456 13.6143 9.12216 14.2038 10.3864C14.7933 11.6506 15.0881 13.142 15.0881 14.8608C15.0881 16.5938 14.7933 18.0959 14.2038 19.3672C13.6143 20.6314 12.7976 21.6115 11.7536 22.3075C10.7095 22.9964 9.50568 23.3409 8.14205 23.3409C7.09091 23.3409 6.24929 23.1669 5.61719 22.8189C4.98509 22.4638 4.49858 22.0625 4.15767 21.6151C3.81676 21.1605 3.55398 20.7841 3.36932 20.4858H3.07102V23H0.642046ZM3.11364 14.8182C3.11364 16.054 3.29474 17.1442 3.65696 18.0888C4.01918 19.0263 4.5483 19.7614 5.24432 20.294C5.94034 20.8196 6.79261 21.0824 7.80114 21.0824C8.85227 21.0824 9.7294 20.8054 10.4325 20.2514C11.1428 19.6903 11.6754 18.9375 12.0305 17.9929C12.3928 17.0412 12.5739 15.983 12.5739 14.8182C12.5739 13.6676 12.3963 12.6307 12.0412 11.7074C11.6932 10.777 11.1641 10.0419 10.4538 9.50213C9.75071 8.95526 8.86648 8.68182 7.80114 8.68182C6.77841 8.68182 5.91903 8.94105 5.22301 9.45952C4.52699 9.97088 4.00142 10.6882 3.64631 11.6115C3.29119 12.5277 3.11364 13.5966 3.11364 14.8182ZM23.7493 23.3835C22.7124 23.3835 21.7713 23.1882 20.9261 22.7976C20.081 22.3999 19.4098 21.8281 18.9126 21.0824C18.4155 20.3295 18.1669 19.4205 18.1669 18.3551C18.1669 17.4176 18.3516 16.6577 18.7209 16.0753C19.0902 15.4858 19.5838 15.0241 20.2017 14.6903C20.8196 14.3565 21.5014 14.108 22.2472 13.9446C23 13.7741 23.7564 13.6392 24.5163 13.5398C25.5107 13.4119 26.3168 13.3161 26.9347 13.2521C27.5597 13.1811 28.0142 13.0639 28.2983 12.9006C28.5895 12.7372 28.7351 12.4531 28.7351 12.0483V11.9631C28.7351 10.9119 28.4474 10.0952 27.8722 9.51278C27.304 8.9304 26.4411 8.6392 25.2834 8.6392C24.0831 8.6392 23.142 8.90199 22.4602 9.42756C21.7784 9.95312 21.299 10.5142 21.022 11.1108L18.6357 10.2585C19.0618 9.2642 19.63 8.49006 20.3402 7.93608C21.0575 7.375 21.8388 6.98437 22.6839 6.7642C23.5362 6.53693 24.3743 6.4233 25.1982 6.4233C25.7237 6.4233 26.3274 6.48722 27.0092 6.61506C27.6982 6.73579 28.3622 6.98793 29.0014 7.37145C29.6477 7.75497 30.1839 8.33381 30.6101 9.10795C31.0362 9.8821 31.2493 10.919 31.2493 12.2188V23H28.7351V20.7841H28.6072C28.4368 21.1392 28.1527 21.5192 27.755 21.924C27.3572 22.3288 26.8281 22.6733 26.1676 22.9574C25.5071 23.2415 24.701 23.3835 23.7493 23.3835ZM24.1328 21.125C25.1271 21.125 25.9652 20.9297 26.647 20.5391C27.3359 20.1484 27.8544 19.6442 28.2024 19.0263C28.5575 18.4084 28.7351 17.7585 28.7351 17.0767V14.7756C28.6286 14.9034 28.3942 15.0206 28.032 15.1271C27.6768 15.2266 27.2649 15.3153 26.7962 15.3935C26.3345 15.4645 25.8835 15.5284 25.4432 15.5852C25.0099 15.6349 24.6584 15.6776 24.3885 15.7131C23.7351 15.7983 23.1243 15.9368 22.5561 16.1286C21.995 16.3132 21.5405 16.5937 21.1925 16.9702C20.8516 17.3395 20.6811 17.8437 20.6811 18.483C20.6811 19.3565 21.0043 20.017 21.6506 20.4645C22.304 20.9048 23.1314 21.125 24.1328 21.125ZM47.4292 10.3011L45.1706 10.9403C45.0286 10.5639 44.8191 10.1982 44.5421 9.84304C44.2722 9.48082 43.9029 9.18253 43.4341 8.94815C42.9654 8.71378 42.3652 8.59659 41.6337 8.59659C40.6323 8.59659 39.7978 8.82741 39.1301 9.28906C38.4696 9.74361 38.1394 10.3224 38.1394 11.0256C38.1394 11.6506 38.3667 12.1442 38.8212 12.5064C39.2757 12.8686 39.986 13.1705 40.9519 13.4119L43.3809 14.0085C44.8439 14.3636 45.9341 14.907 46.6515 15.6385C47.3688 16.3629 47.7275 17.2969 47.7275 18.4403C47.7275 19.3778 47.4576 20.2159 46.9178 20.9545C46.3851 21.6932 45.6394 22.2756 44.6806 22.7017C43.7218 23.1278 42.6067 23.3409 41.3354 23.3409C39.6664 23.3409 38.285 22.9787 37.1912 22.2543C36.0975 21.5298 35.405 20.4716 35.1138 19.0795L37.5002 18.483C37.7275 19.3636 38.1571 20.0241 38.7892 20.4645C39.4284 20.9048 40.263 21.125 41.2928 21.125C42.4647 21.125 43.3951 20.8764 44.084 20.3793C44.78 19.875 45.128 19.2713 45.128 18.5682C45.128 18 44.9292 17.5241 44.5314 17.1406C44.1337 16.75 43.5229 16.4588 42.699 16.267L39.9718 15.6278C38.4732 15.2727 37.3723 14.7223 36.6692 13.9766C35.9732 13.2237 35.6252 12.2827 35.6252 11.1534C35.6252 10.2301 35.8844 9.41335 36.4029 8.70312C36.9284 7.9929 37.6422 7.43537 38.5442 7.03054C39.4533 6.62571 40.4831 6.4233 41.6337 6.4233C43.253 6.4233 44.5243 6.77841 45.4476 7.48864C46.378 8.19886 47.0385 9.13636 47.4292 10.3011ZM51.5121 23V6.63636H54.0263V23H51.5121ZM52.7905 3.90909C52.3004 3.90909 51.8778 3.74219 51.5227 3.40838C51.1747 3.07457 51.0007 2.6733 51.0007 2.20455C51.0007 1.7358 51.1747 1.33452 51.5227 1.00071C51.8778 0.666903 52.3004 0.5 52.7905 0.5C53.2805 0.5 53.6996 0.666903 54.0476 1.00071C54.4027 1.33452 54.5803 1.7358 54.5803 2.20455C54.5803 2.6733 54.4027 3.07457 54.0476 3.40838C53.6996 3.74219 53.2805 3.90909 52.7905 3.90909ZM65.7477 6.63636V8.76704H57.2676V6.63636H65.7477ZM59.7392 2.71591H62.2534V18.3125C62.2534 19.0227 62.3564 19.5554 62.5623 19.9105C62.7754 20.2585 63.0453 20.4929 63.372 20.6136C63.7058 20.7273 64.0574 20.7841 64.4267 20.7841C64.7037 20.7841 64.9309 20.7699 65.1085 20.7415C65.286 20.706 65.4281 20.6776 65.5346 20.6562L66.046 22.9148C65.8755 22.9787 65.6376 23.0426 65.3322 23.1065C65.0268 23.1776 64.6397 23.2131 64.171 23.2131C63.4608 23.2131 62.7647 23.0604 62.0829 22.755C61.4082 22.4496 60.8471 21.9844 60.3997 21.3594C59.9593 20.7344 59.7392 19.946 59.7392 18.9943V2.71591Z" fill="white"/>
</svg>