<svg version="1.0" xmlns="http://www.w3.org/2000/svg"
   width="900.000000pt" height="612.000000pt" viewBox="0 0 900.000000 612.000000"
   preserveAspectRatio="xMidYMid meet">
  <g transform="translate(0.000000,612.000000) scale(0.100000,-0.100000)"
    fill="#ffffff" stroke="none">
   <path d="M2322 3994 c-12 -8 -22 -21 -22 -29 0 -8 -6 -29 -14 -47 -8 -18 -22
   -53 -31 -78 -10 -25 -21 -54 -26 -65 -5 -11 -65 -173 -134 -360 -136 -368
   -150 -405 -170 -450 -12 -28 -24 -60 -61 -157 -9 -24 -23 -60 -31 -80 -25 -59
   -15 -68 71 -68 92 0 89 -4 151 173 56 160 73 199 88 209 7 4 127 8 268 8 193
   0 259 -3 267 -12 5 -7 26 -60 45 -118 20 -58 41 -121 48 -140 6 -19 20 -54 31
   -77 l19 -43 77 0 c42 0 84 4 92 10 16 10 12 26 -50 190 -17 47 -35 96 -40 110
   -5 14 -18 50 -30 80 -11 30 -32 87 -45 125 -13 39 -33 95 -45 125 -32 83 -129
   353 -202 560 -22 63 -47 123 -56 133 -21 23 -167 25 -200 1z m106 -226 c20
   -39 172 -512 172 -535 l0 -23 -194 0 c-162 0 -195 2 -200 15 -3 8 8 52 25 97
   16 46 41 115 54 153 13 39 33 95 45 125 12 30 26 69 30 85 32 108 46 126 68
   83z"/>
   <path d="M3146 3995 c-14 -15 -16 -81 -16 -660 0 -730 -7 -675 84 -675 62 0
   76 11 76 60 0 20 3 39 6 43 3 3 22 -10 42 -30 61 -61 111 -78 232 -78 93 0
   112 3 162 27 155 72 240 226 255 458 9 157 -34 313 -116 410 -39 48 -116 88
   -212 111 -78 19 -80 19 -154 0 -77 -19 -129 -51 -174 -104 -13 -15 -28 -24
   -32 -20 -5 5 -10 112 -11 238 l-3 230 -61 3 c-46 2 -66 -1 -78 -13z m498 -486
   c148 -37 221 -249 167 -484 -27 -121 -61 -175 -141 -228 -35 -24 -135 -22
   -202 4 -71 27 -108 61 -143 134 -27 54 -30 71 -33 180 -5 166 26 276 97 344
   58 56 157 75 255 50z"/>
   <path d="M4827 4003 c-4 -3 -7 -109 -7 -234 0 -125 -4 -230 -8 -233 -5 -3 -30
   13 -57 35 -81 67 -100 78 -165 95 -57 14 -67 14 -133 -2 -105 -25 -173 -58
   -216 -104 -108 -116 -155 -325 -116 -520 37 -187 112 -297 245 -359 48 -22
   68 -25 165 -26 126 0 174 16 235 79 19 20 38 36 43 36 4 0 7 -18 7 -39 0 -55
   20 -71 85 -71 43 0 56 4 65 19 6 13 10 238 10 660 0 568 -2 641 -16 655 -16
   16 -123 23 -137 9z m-196 -494 c87 -26 147 -113 174 -251 19 -96 19 -156 0
   -235 -30 -126 -77 -187 -174 -222 -211 -77 -351 71 -351 371 0 189 59 304 170
   336 48 14 135 14 181 1z"/>
   <path d="M6293 3998 c-13 -20 -16 -1294 -3 -1318 9 -17 21 -20 75 -20 53 0 66
   3 75 19 6 13 10 236 10 656 0 420 -4 643 -10 656 -9 16 -22 19 -75 19 -40 0
   -67 -5 -72 -12z"/>
   <path d="M5206 3923 c-50 -2 -96 -9 -103 -15 -10 -8 -13 -100 -13 -444 l0
   -434 78 -60 c42 -33 95 -75 116 -93 104 -84 183 -138 217 -147 21 -6 159 -9
   332 -8 274 3 296 4 316 22 21 19 21 23 21 570 0 303 -3 561 -6 573 -3 12 -18
   25 -33 30 -14 4 -111 7 -214 5 l-188 -3 -10 -26 c-5 -15 -9 -175 -9 -392 0
   -201 0 -374 0 -384 0 -16 -9 -17 -82 -15 l-83 3 -5 400 c-3 220 -7 401 -8 401
   -25 17 -160 24 -326 17z m248 -89 c8 -20 8 -698 0 -718 -5 -14 -27 -16 -139
   -16 -75 0 -136 4 -140 10 -7 12 -7 719 1 731 3 5 65 9 139 9 112 0 134 -2 139
   -16z m621 -504 l0 -515 -129 -3 c-71 -1 -133 1 -138 6 -9 9 -11 1008 -2 1024
   3 5 65 7 137 6 l132 -3 0 -515z m-378 -318 c13 -8 21 -172 9 -191 -5 -7 -42
   -11 -99 -11 -104 0 -89 -7 -236 109 -76 60 -90 78 -74 94 9 10 385 8 400 -1z"/>
   <path d="M4120 2231 c0 -12 29 -23 42 -15 6 4 5 10 -3 15 -18 11 -39 11 -39 0z"/>
   
  </g>
</svg>
