<svg width="206" height="120" viewBox="0 0 206 120" fill="none" xmlns="http://www.w3.org/2000/svg">
<rect width="198.761" height="107.158" rx="27.0445" transform="matrix(0.998205 -0.0598879 0.0625688 0.998041 -0.000488281 12.4902)" fill="white"/>
<path d="M58.7789 35.9429L89.3265 34.1102L89.4754 36.4856L61.728 38.1503L62.8488 56.028L88.9415 54.4626L89.0905 56.8379L62.9977 58.4034L64.2282 78.0313L92.2938 76.3475L92.4428 78.7229L61.5769 80.5747L58.7789 35.9429ZM92.0631 33.946L95.3088 33.7513L110.922 52.5164L124.393 32.0064L142.825 5.87471L112.897 54.4685L131.264 76.3938L127.891 76.5962L111.181 56.642L97.0249 78.448L93.7156 78.6465L109.333 54.6823L92.0631 33.946ZM129.824 34.0649L129.675 31.6895L164.486 29.601L164.635 31.9763L148.598 32.9385L151.247 75.1949L148.447 75.3629L145.798 33.1065L129.824 34.0649ZM20.5625 38.2357L24.0628 38.0257L76.759 105.791L55.181 80.9584L23.7016 41.4356L26.1608 82.6995L23.3606 82.8675L20.5625 38.2357ZM166.808 71.1575C166.236 71.1918 165.78 70.7839 165.745 70.2234C165.71 69.663 166.112 69.2036 166.684 69.1692C167.263 69.1345 167.712 69.5429 167.747 70.1033C167.782 70.6637 167.387 71.1227 166.808 71.1575ZM169.396 68.377L170.894 68.2871C170.965 69.0798 171.591 69.578 172.462 69.5257C173.436 69.4673 173.952 68.8604 173.885 67.7863L173.458 60.981L174.984 60.8895L175.411 67.7014C175.532 69.6362 174.458 70.8191 172.564 70.9327C170.787 71.0393 169.5 70.0316 169.396 68.377ZM177.42 67.8085L178.932 67.7178C179.119 68.6241 180.068 69.1498 181.383 69.0709C182.609 68.9974 183.469 68.323 183.415 67.469C183.369 66.7351 182.769 66.329 181.45 66.1069L180.164 65.8826C178.361 65.5823 177.498 64.7903 177.409 63.3758C177.302 61.6612 178.66 60.4345 180.806 60.3058C182.801 60.186 184.33 61.2395 184.52 62.8554L183.036 62.9445C182.837 62.0657 182.012 61.5594 180.868 61.628C179.663 61.7003 178.895 62.3157 178.949 63.183C178.992 63.8702 179.534 64.2328 180.833 64.4495L181.932 64.6448C183.977 64.9842 184.858 65.7349 184.949 67.1827C185.064 69.0241 183.679 70.2658 181.35 70.4056C179.171 70.5363 177.637 69.5233 177.42 67.8085Z" fill="black"/>
</svg>
