<svg width="117" height="115" viewBox="0 0 117 115" fill="none" xmlns="http://www.w3.org/2000/svg">
<rect width="112.271" height="109.838" rx="27.7222" transform="matrix(0.999319 -0.0368932 0.0385488 0.999257 -0.000976562 4.729)" fill="white"/>
<path d="M58.604 67.6436C63.7264 67.4545 67.7146 63.0397 67.5118 57.783C67.309 52.5263 62.9921 48.4182 57.8697 48.6073C52.7473 48.7964 48.7591 53.2111 48.9619 58.4678C49.1647 63.7246 53.4816 67.8327 58.604 67.6436Z" fill="#00D8FF"/>
<path d="M57.5781 41.0449C69.5637 40.6024 81.0162 41.9162 89.79 44.6546C99.5343 47.6959 105.592 52.5007 105.741 56.3696C105.9 60.4908 99.7736 66.0748 89.6257 69.9508C81.5468 73.0364 70.6525 74.9579 58.9031 75.3917C46.56 75.8474 35.4263 74.7687 27.2255 72.2292C22.0914 70.6394 17.8191 68.4847 14.8546 66.0707C12.1906 63.9014 10.8031 61.7013 10.7327 59.8772C10.583 55.9953 16.0315 50.8355 25.3076 47.1229C33.8476 43.7052 45.4431 41.4929 57.5781 41.0449ZM57.4024 36.4906C44.796 36.956 32.7148 39.261 23.6808 42.8765C12.8341 47.2177 6.04805 53.644 6.29483 60.041C6.54971 66.648 14.3457 72.9964 25.9564 76.5917C34.6838 79.2943 46.2856 80.4182 59.0788 79.9459C71.2712 79.4958 82.6238 77.4935 91.1883 74.2224C102.941 69.7333 110.437 62.9011 110.179 56.2058C109.931 49.7856 102.441 43.8447 91.0684 40.2951C81.7944 37.4004 69.8554 36.0309 57.4024 36.4906ZM43.4129 50.1742C48.9895 39.2983 55.7842 29.7789 62.4519 23.3566C69.8571 16.2241 76.9208 13.255 80.2613 15.0671C83.8196 16.9974 85.4925 25.2504 83.7269 36.2188C82.3211 44.9511 78.535 55.6006 73.0683 66.2624C67.3253 77.4629 60.8875 86.817 54.6721 92.8299C50.7811 96.5943 46.841 99.3087 43.3312 100.73C40.1773 102.008 37.631 102.135 36.0559 101.28C32.7043 99.4621 31.0531 92.0254 32.5239 81.9138C33.8779 72.6051 37.7666 61.1862 43.4129 50.1742ZM39.4807 48.0409C33.615 59.4808 29.5634 71.3779 28.1311 81.2252C26.4114 93.0487 28.4678 102.311 33.9911 105.308C39.6959 108.402 48.9257 104.664 57.7251 96.151C64.3396 89.752 71.0481 80.0046 77.0005 68.3957C82.6733 57.3319 86.6187 46.2344 88.1089 36.9773C90.1539 24.2738 88.1069 14.176 82.3261 11.04C76.7829 8.03286 68.0488 11.7041 59.406 20.0287C52.3581 26.8171 45.2747 36.7409 39.4807 48.0409ZM44.0897 67.3571C37.6742 56.9341 33.0086 46.1099 30.8951 36.9551C28.5478 26.7879 29.5465 19.0162 32.7345 16.9574C36.1304 14.7643 43.929 17.4245 52.3137 24.5062C58.9893 30.1442 66.102 38.8616 72.3913 49.0795C78.9984 59.8134 83.7015 70.2373 85.694 78.7844C86.9414 84.1351 87.2779 89.0018 86.7363 92.8362C86.2496 96.2818 85.0933 98.6094 83.5902 99.5801C80.3914 101.646 73.2927 99.3765 65.485 92.9875C58.2972 87.1059 50.5856 77.9104 44.0897 67.3571ZM40.337 69.7807C47.0853 80.744 55.1199 90.3246 62.7235 96.5465C71.8531 104.017 80.6945 106.844 85.9657 103.44C91.41 99.9235 92.8343 89.8399 90.0133 77.7393C87.8929 68.6434 82.992 57.7813 76.144 46.6559C69.6176 36.0528 62.2056 26.9686 55.1289 20.9919C45.4179 12.79 35.8759 9.53506 30.359 13.0981C25.0688 16.5145 23.8339 26.1238 26.5735 37.9905C28.8075 47.6672 33.6713 58.9513 40.337 69.7807Z" fill="#00D8FF"/>
</svg>
