<svg width="179" height="196" viewBox="0 0 179 196" fill="none" xmlns="http://www.w3.org/2000/svg">
<path d="M123.46 66.5117L95.1792 75.7463L70.5754 86.6053L63.6922 88.4225C61.9391 90.0899 60.1011 91.7788 58.113 93.4888C55.9327 95.3698 53.902 97.0802 52.3413 98.3197C50.6099 99.6879 48.0448 102.253 46.7409 103.877C44.7956 106.314 43.2566 108.901 42.5939 110.889C41.4181 114.48 41.9955 118.114 44.2613 121.47C47.1684 125.745 52.9615 130.106 59.7161 133.077C63.1579 134.595 68.9508 136.54 73.3113 137.63C80.5577 139.469 94.5806 141.457 102.297 141.756C103.857 141.82 105.952 141.82 106.038 141.756C106.209 141.649 107.406 139.362 108.796 136.519C113.541 126.835 116.961 117.751 118.821 109.991C119.932 105.289 120.809 99.0253 121.386 91.6081C121.536 89.5345 121.599 82.5872 121.471 80.2357C121.279 76.3881 120.937 73.2673 120.403 70.2105C120.317 69.7615 120.295 69.3553 120.338 69.334C120.424 69.2699 120.68 69.1844 124.165 68.1795L123.459 66.5124V66.5119H123.46V66.5117ZM117.004 70.2955C117.261 70.2955 117.945 76.8579 118.116 81.0051C118.159 81.8814 118.137 82.4586 118.094 82.4586C117.923 82.4586 114.482 80.4281 112.024 78.8891C109.886 77.5423 105.825 74.8487 105.184 74.3358C104.969 74.1862 104.991 74.1649 106.744 73.5662C109.715 72.5614 116.769 70.2955 117.004 70.2955ZM102.597 75.0412C102.789 75.0412 103.281 75.3187 104.456 76.0457C108.86 78.8032 114.845 82.138 117.41 83.2497C118.201 83.5917 118.286 83.4633 116.47 84.7033C112.579 87.3538 107.727 89.9616 101.784 92.5909C100.737 93.0612 99.8605 93.4245 99.8392 93.4245C99.7966 93.4245 99.9244 92.8904 100.095 92.249C101.528 86.9259 102.34 81.5393 102.383 77.2213C102.404 75.0835 102.404 75.0835 102.597 75.0198C102.554 75.0412 102.575 75.0412 102.597 75.0412ZM99.6256 76.174C99.7534 76.302 99.6681 81.0905 99.497 82.3943C99.1123 85.5153 98.5137 88.4224 97.5308 91.6932C97.2956 92.4836 97.0815 93.1467 97.0392 93.1893C96.9532 93.296 94.0247 90.4317 93.0628 89.3202C91.3954 87.3962 90.0918 85.4724 89.1298 83.5914C88.6381 82.6294 87.8687 80.7485 87.9327 80.6843C88.2747 80.4492 99.54 76.0886 99.6256 76.174ZM85.6453 81.6675C85.6666 81.6675 85.6879 81.6675 85.7096 81.6888C85.7522 81.7316 85.9021 82.0738 86.0303 82.4584C86.7141 84.3182 88.253 87.0543 89.5787 88.8072C91.0322 90.7311 92.9349 92.7831 94.5163 94.1298C95.0296 94.5573 95.4996 94.9633 95.5635 95.0276C95.6921 95.1559 95.7348 95.1343 92.2503 96.4598C88.2107 97.9989 83.8069 99.5379 78.762 101.162C77.5569 101.551 76.3529 101.943 75.15 102.338C74.9573 102.402 75.0216 102.295 75.5773 101.419C78.0782 97.5072 81.8831 89.8332 84.0208 84.4036C84.3843 83.4631 84.7476 82.5227 84.8119 82.3089C84.8974 82.0094 85.0041 81.9026 85.2819 81.7529C85.4315 81.7105 85.5813 81.6675 85.6453 81.6675ZM81.3705 83.4418C81.4345 83.4847 80.3442 85.7717 79.2754 87.8666C77.2018 91.9066 74.936 95.8829 71.9007 100.714C71.3877 101.547 70.8962 102.317 70.8319 102.403C70.7252 102.552 70.6822 102.509 70.3402 101.847C69.6135 100.414 69.0147 98.576 68.6942 96.8872C68.3734 95.2198 68.4377 92.3129 68.8012 90.5173C69.0788 89.1921 69.0577 89.2135 69.6989 88.8928C72.435 87.5034 81.2849 83.3563 81.3705 83.4418ZM118.244 84.9383V85.836C118.244 90.6029 117.731 97.1439 116.983 101.911C116.854 102.745 116.747 103.428 116.726 103.45C116.726 103.45 116.106 103.279 115.38 103.065C112.173 102.06 108.689 100.585 105.546 98.8543C103.473 97.7213 100.459 95.8613 100.545 95.7757C100.566 95.7545 101.464 95.2843 102.511 94.7284C106.701 92.5482 110.719 90.1968 114.204 87.8668C115.508 86.9903 117.474 85.5797 117.902 85.1948L118.244 84.9383ZM65.2312 91.2652C65.3167 91.2652 65.2953 91.4362 65.167 92.2058C65.0815 92.7618 64.9747 93.7878 64.9322 94.4929C64.7608 97.6139 65.2742 99.9227 66.8132 103.086C67.2407 103.963 67.583 104.69 67.5613 104.711C67.4115 104.839 53.2609 108.986 48.8143 110.205C47.4891 110.568 46.335 110.889 46.2491 110.91C46.0997 110.953 46.0782 110.931 46.1423 110.568C46.6339 107.426 49.0281 103.321 52.3627 99.8582C54.5859 97.5498 56.3602 96.2031 59.3956 94.4714C61.5759 93.2319 64.9319 91.3724 65.1884 91.2866C65.1886 91.2652 65.2099 91.2652 65.2312 91.2652ZM98.578 97.2292C98.5993 97.2079 99.1123 97.486 99.7321 97.8492C104.307 100.5 110.677 102.958 116.106 104.219L116.598 104.326L115.914 104.711C113.071 106.293 103.729 110.183 94.1746 113.753C92.7849 114.266 91.417 114.779 91.1601 114.886C90.9036 114.993 90.6684 115.057 90.6684 115.036C90.6684 115.014 91.0534 114.266 91.5447 113.347C94.2167 108.345 96.9104 102.253 98.2784 98.0201C98.4498 97.614 98.5563 97.2508 98.578 97.2292ZM95.1792 98.3409C95.2009 98.3627 95.0297 98.8112 94.8158 99.3242C92.9562 103.834 90.519 108.751 87.3982 114.266C86.6075 115.677 85.9447 116.81 85.923 116.81C85.902 116.81 85.2605 116.425 84.491 115.955C79.959 113.176 75.9405 109.756 73.3114 106.443L72.9265 105.972L74.8716 105.438C81.8403 103.536 87.7612 101.483 93.6399 98.9611C94.4737 98.619 95.1579 98.3409 95.1792 98.3409ZM116.299 105.716C116.32 106.207 115.23 110.611 114.332 113.796C113.584 116.468 112.942 118.563 111.767 122.26C111.254 123.885 110.805 125.232 110.784 125.232C110.762 125.232 110.634 125.21 110.506 125.168C104.157 124.013 98.4712 122.41 93.1271 120.273C91.6306 119.674 89.4931 118.712 89.3649 118.605C89.3223 118.562 90.6049 117.964 92.2294 117.258C101.956 113.005 112.045 108.174 115.508 106.1C115.914 105.844 116.235 105.716 116.299 105.716ZM67.54 107.383C67.5828 107.426 64.868 111.338 61.0628 116.66C59.7376 118.52 58.1986 120.7 57.6215 121.512C57.0443 122.325 56.168 123.607 55.6763 124.377L54.7781 125.767L53.8161 124.954C52.6831 124.014 50.7168 122.004 49.8404 120.893C48.0019 118.606 46.7623 116.19 46.2706 113.989C46.0354 112.962 46.0354 112.449 46.249 112.385C46.5695 112.3 52.277 110.953 57.6213 109.713C60.5926 109.029 64.0339 108.217 65.2738 107.918C66.5137 107.618 67.5187 107.383 67.54 107.383ZM70.276 108.431L70.9598 109.2C74.0383 112.642 77.1805 115.186 80.9855 117.408C81.6697 117.793 82.1825 118.135 82.1396 118.157C81.9903 118.264 68.9292 122.902 62.8798 124.997C59.4812 126.194 56.6808 127.156 56.6597 127.156C56.6384 127.156 56.4459 127.028 56.2318 126.878L55.8472 126.6L56.4671 125.702C58.4763 122.795 60.9991 119.61 66.4926 112.984L70.276 108.431ZM87.3344 120.636C87.3554 120.615 88.296 120.957 89.4501 121.385C92.2294 122.432 94.4307 123.094 97.3809 123.843C101.015 124.762 106.273 125.66 109.373 125.916C109.843 125.959 110.1 126.002 110.014 126.066C109.864 126.151 106.722 127.199 104.414 127.926C100.737 129.08 89.5145 132.393 80.3656 135.022C78.6769 135.514 77.2232 135.92 77.1378 135.941C76.9242 135.984 76.2186 135.792 76.2186 135.706C76.2186 135.664 76.7315 135.001 77.3516 134.274C80.4295 130.598 83.4866 126.493 86.0303 122.603C86.7355 121.534 87.3344 120.657 87.3344 120.636ZM83.5718 120.743C83.5931 120.765 82.0756 123.201 79.4252 127.391C78.292 129.165 77.0308 131.174 76.5818 131.88C76.1543 132.564 75.5131 133.633 75.1498 134.231L74.5298 135.322L74.2092 135.236C73.4395 135.022 68.0315 133.12 66.5992 132.543C64.8249 131.837 62.9866 130.982 61.6184 130.255C59.9085 129.336 57.7711 127.968 57.9419 127.925C57.9846 127.904 60.9132 127.113 64.44 126.151C73.8029 123.607 78.9971 122.132 82.3962 121.064C83.0163 120.871 83.5505 120.722 83.5718 120.743ZM110.185 126.985H110.206C110.292 127.199 106.829 136.818 105.568 139.853C105.29 140.537 105.184 140.708 105.034 140.687C104.67 140.666 99.6469 139.96 96.5898 139.511C91.2674 138.699 82.3321 137.138 80.0878 136.625L79.5748 136.519L82.7594 135.791C89.6 134.252 92.8918 133.419 96.2264 132.393C100.438 131.11 104.606 129.507 108.817 127.541C109.48 127.241 110.035 127.006 110.185 126.985Z" fill="url(#paint0_linear_41_2)"/>
<path d="M94.3022 0.588009C93.8319 0.524232 86.2431 3.26033 81.3482 5.24806C74.7428 7.94177 69.6128 10.507 66.449 12.7297C65.2735 13.5637 63.7983 15.0384 63.5635 15.6155C63.478 15.8293 63.4351 16.0858 63.4351 16.3423L66.2996 19.0571L73.1184 21.2374L89.3429 24.1446L107.897 27.3297L108.09 25.7265C108.026 25.7265 107.983 25.7052 107.919 25.7052L105.482 25.3203L104.99 24.444C102.468 19.9977 99.689 14.4826 98.0645 10.7631C96.8035 7.8773 95.6063 4.54296 94.9435 2.14872C94.58 0.695157 94.5375 0.609695 94.3027 0.588403V0.58791H94.3022V0.588009ZM93.9597 1.67852H93.9817C94.0027 1.69962 94.0883 2.29855 94.1739 3.00355C94.537 5.99662 95.2002 8.88196 96.2474 12.003C97.0382 14.3544 97.0382 14.2263 96.1192 13.9482C93.9388 13.3499 84.17 11.6611 77.0945 10.6779C75.9615 10.5281 74.9996 10.3786 74.9996 10.3573C74.9141 10.2718 80.1083 7.55684 82.3956 6.4883C85.3241 5.1413 93.3615 1.78528 93.9597 1.67852ZM73.3533 11.2549L74.1873 11.5325C78.7187 13.0718 90.1119 15.2523 96.3969 15.7652C97.102 15.8294 97.7009 15.8937 97.7219 15.8937C97.7432 15.915 97.145 16.2356 96.3753 16.5989C93.3402 18.1166 90.0054 19.9764 87.6967 21.4086C87.0129 21.836 86.3927 22.1782 86.3074 22.1782C86.2218 22.1782 85.7731 22.0926 85.3028 22.0285L84.4478 21.9L82.3104 19.8051C78.5482 16.15 75.5982 13.3284 74.4652 12.2594L73.3533 11.2549ZM72.4986 11.9174L75.5125 15.6798C77.1583 17.7533 78.8257 19.7839 79.1894 20.2326C79.5525 20.6818 79.8519 21.0453 79.8306 21.0666C79.7451 21.1307 75.4702 20.2968 73.204 19.7841C70.874 19.2495 69.9121 18.993 68.4799 18.5443L67.3042 18.1594V17.8599C67.3254 16.4276 69.1426 14.2902 72.2207 12.11L72.4986 11.9174ZM98.107 17.0478C98.1927 17.0478 98.2992 17.2401 98.5557 17.8172C99.2825 19.4203 101.549 23.7385 102.104 24.5721C102.276 24.8502 102.574 24.8715 99.5606 24.3798C92.3143 23.2039 89.9841 22.8195 89.9841 22.7767C89.9841 22.7554 90.1979 22.6057 90.4758 22.456C92.7204 21.2164 94.9861 19.6344 96.9956 17.9457C97.4873 17.5394 97.9362 17.1547 98.0214 17.0904C98.0427 17.0478 98.0857 17.0265 98.107 17.0478Z" fill="url(#paint1_linear_41_2)"/>
<path d="M63.713 15.3159C63.713 15.3159 63.243 16.0644 63.6918 17.176C63.97 17.8598 64.7821 18.6933 65.7011 19.5486C65.7011 19.5486 75.2134 28.8257 76.3678 30.1512C81.6261 36.2218 83.9135 42.2072 84.1273 50.4585C84.2556 55.7597 83.2506 60.4197 80.7498 65.8279C76.3036 75.5327 66.9193 86.2422 52.4478 98.1274L54.5643 97.4219C55.9323 96.3956 57.7921 95.3058 62.1527 92.9116C72.2206 87.3962 83.5501 82.3301 97.4446 77.1144C117.452 69.5898 150.35 60.7827 169.075 57.9187L171.021 57.6192L170.722 57.1489C169.012 54.4982 167.836 52.8524 166.425 51.0996C162.321 46.012 157.34 41.8866 151.248 38.4663C142.869 33.7852 132.031 30.1299 118.307 27.4151C115.721 26.9018 110.035 25.9186 105.418 25.2133C95.6274 23.6959 89.3 22.6483 82.3316 21.4512C79.8308 21.0235 76.0896 20.3824 73.61 19.8481C72.3275 19.5699 69.8695 18.9929 67.9456 18.3303C66.4066 17.7315 64.1833 17.1329 63.713 15.3159ZM69.2284 20.6602C69.2495 20.6391 69.5914 20.7669 70.0406 20.9166C70.8528 21.1942 71.9002 21.515 73.1403 21.8572C74.0785 22.1153 75.0191 22.3647 75.9619 22.6053C77.2444 22.9258 78.3131 23.2251 78.3344 23.2251C78.4843 23.3749 80.6433 30.2788 81.3701 32.9296C81.6476 33.9345 81.8618 34.7894 81.8404 34.7894C81.8184 34.811 81.5836 34.4474 81.3058 33.9558C78.8048 29.5523 74.8502 25.0847 70.2756 21.4934C69.6774 21.0663 69.2284 20.6815 69.2284 20.6602ZM79.7453 23.5673C79.8523 23.5673 80.3226 23.6315 80.8994 23.7596C84.5334 24.5718 91.0533 25.8117 95.2214 26.5172C95.9269 26.6239 96.4829 26.7525 96.4829 26.795C96.4829 26.8379 96.2261 26.9873 95.9053 27.1585C95.2002 27.5217 92.357 29.2103 91.4167 29.8517C89.0438 31.4335 86.9064 33.1436 85.3672 34.6826C84.7473 35.3026 84.2127 35.8156 84.2127 35.8156C84.2127 35.8156 84.0848 35.4524 83.9775 35.0032C83.2084 32.0319 81.6049 27.6283 80.1514 24.529C79.9162 24.0375 79.7236 23.5885 79.7236 23.5459C79.7236 23.5886 79.7236 23.5673 79.7453 23.5673ZM98.2569 27.0943C98.3851 27.1369 98.5989 27.8638 99.0264 29.4669C99.8174 32.5666 100.181 36.0295 100.053 39.2573C100.01 40.1551 99.967 40.9886 99.9241 41.0958L99.8601 41.3093L98.7486 40.946C96.4613 40.2193 92.742 39.1288 89.5571 38.2312C87.7398 37.7395 86.2653 37.2906 86.2653 37.248C86.2653 37.1195 88.916 34.469 90.0488 33.4644C92.2074 31.5617 98.0644 27.0301 98.2569 27.0943ZM99.7318 27.3078C99.7961 27.2441 108.582 28.7614 112.579 29.5311C115.55 30.1081 119.868 31.006 120.125 31.1131C120.253 31.1556 119.804 31.4121 118.372 32.0534C112.729 34.5973 108.539 36.8842 104.371 39.6634C103.28 40.3902 102.361 40.9886 102.34 40.9886C102.319 40.9886 102.297 40.3689 102.297 39.6206C102.297 35.5593 101.485 31.455 99.9882 27.9921C99.8387 27.6501 99.7105 27.3295 99.7318 27.3078ZM122.455 31.7971C122.519 31.8611 122.241 33.5928 121.984 34.6186C121.215 37.8037 119.141 42.5281 116.598 46.9741C116.149 47.765 115.743 48.4063 115.7 48.4276C115.657 48.4489 115.08 48.1282 114.417 47.7434C111.938 46.2899 109.116 44.9219 106.038 43.6392C105.183 43.2759 104.435 42.9764 104.413 42.9341C104.263 42.8056 111.147 38.2525 114.781 36.0722C117.666 34.3195 122.369 31.7114 122.455 31.7971ZM124.079 32.0535C124.272 32.0535 128.162 33.1224 130.192 33.7209C135.216 35.2174 140.987 37.3334 144.75 39.0435L146.31 39.7492L145.22 40.0054C136.029 42.1215 128.162 44.5587 120.573 47.6368C119.953 47.8933 119.398 48.1071 119.355 48.1071C119.312 48.1071 119.526 47.6155 119.804 47.0168C122.091 42.1645 123.566 37.0983 123.929 32.7801C123.951 32.3739 124.015 32.0535 124.079 32.0535ZM85.3459 40.946C85.4098 40.8818 88.3812 41.5874 89.9844 42.0359C92.4213 42.7202 97.5941 44.4514 97.5941 44.5798C97.5941 44.6011 97.0171 45.0928 96.3333 45.6915C93.5331 48.0215 90.8395 50.4794 87.6115 53.6005C86.6495 54.52 85.8375 55.268 85.7949 55.268C85.7519 55.268 85.7309 55.1395 85.7519 54.9686C86.2435 51.3772 86.1369 46.7602 85.4528 42.0788C85.3885 41.4801 85.3245 40.9673 85.3459 40.946ZM147.785 41.0103C147.828 41.0528 146.417 43.2759 145.519 44.537C144.237 46.3752 142.355 48.8126 138.102 54.1565C135.858 56.9779 133.335 60.1632 132.501 61.2319C131.646 62.3006 130.941 63.1982 130.919 63.1982C130.898 63.1982 130.62 62.8137 130.321 62.3435C127.927 58.7522 125.062 55.6099 121.663 52.7883C121.022 52.2538 120.317 51.6766 120.082 51.5056C119.847 51.3347 119.654 51.1636 119.654 51.1423C119.654 51.0784 123.288 49.5176 126.046 48.4062C130.877 46.4395 137.46 44.0883 142.398 42.5704C144.985 41.7583 147.742 40.9673 147.785 41.0103ZM149.431 41.4375C149.516 41.4163 150.03 41.6728 150.65 42.0359C155.844 45.0072 160.931 48.8337 164.95 52.7669C166.083 53.8786 168.883 56.7858 168.84 56.8071C168.84 56.8071 167.857 56.8925 166.703 56.9779C157.704 57.6622 146.182 59.5643 135.109 62.2363C134.361 62.4071 133.699 62.5568 133.656 62.5568C133.613 62.5568 134.447 61.7233 135.494 60.7187C141.993 54.4556 144.964 50.501 148.469 43.4467C148.961 42.3996 149.389 41.5018 149.431 41.4375C149.41 41.4375 149.41 41.4375 149.431 41.4375ZM101.827 46.3116C102.126 46.3753 104.905 47.6798 107 48.7269C108.924 49.6885 111.81 51.2279 111.959 51.356C111.98 51.3772 110.954 51.9117 109.693 52.5317C105.674 54.541 102.233 56.4433 98.6416 58.6238C97.6157 59.2438 96.7606 59.7571 96.7394 59.7571C96.6538 59.7571 96.6751 59.6711 97.2523 58.6238C99.1763 55.1184 100.715 50.9286 101.592 46.8456C101.677 46.5251 101.763 46.3116 101.827 46.3116ZM99.0476 46.8244C99.1119 46.8886 98.3851 49.5177 97.9364 50.9499C97.0597 53.6647 95.5849 57.0634 94.1529 59.6286C93.8104 60.2269 93.2976 61.1034 93.0197 61.595L92.4854 62.45L91.2884 61.296C89.8991 59.9492 88.7659 59.1155 87.3126 58.3672C86.7351 58.0682 86.2864 57.8114 86.2864 57.7689C86.2864 57.5979 89.9417 54.2847 92.7419 51.8905C94.7511 50.159 98.9837 46.7603 99.0476 46.8244ZM116.042 53.8145L117.09 54.4983C119.483 56.059 122.305 58.1323 124.464 59.9492C125.682 60.9536 128.033 63.0702 128.504 63.5832L128.76 63.8613L127.029 64.3528C117.239 67.0673 109.672 69.4829 100.843 72.7322C99.8601 73.0955 99.0264 73.3948 98.9621 73.3948C98.8342 73.3948 98.727 73.5015 100.929 71.4707C106.572 66.2768 111.574 60.5476 115.294 54.9685L116.042 53.8145ZM111.574 54.926C111.617 54.9686 108.688 59.094 106.935 61.4241C104.841 64.2031 101.121 68.863 98.5561 71.8981C97.4875 73.1596 96.5685 74.2069 96.5256 74.2284C96.4613 74.2497 96.44 73.9291 96.44 73.4374C96.44 70.8507 95.7775 68.0932 94.623 65.742C94.1313 64.7588 94.0457 64.5236 94.153 64.4168C94.559 64.0533 100.779 60.5048 104.712 58.3888C107.363 56.978 111.51 54.8832 111.574 54.926ZM84.5547 61.5526C84.619 61.5526 85.1107 61.8089 85.6665 62.1083C87.0345 62.8564 88.253 63.69 89.3431 64.588C89.3857 64.6306 88.8301 65.0797 88.1034 65.6138C86.0726 67.0673 82.9945 69.3975 81.1992 70.8298C79.3176 72.3261 79.2539 72.3688 79.4675 72.0482C80.8784 69.8892 81.5835 68.6707 82.332 67.1104C82.9945 65.7211 83.657 64.0751 84.1273 62.6428C84.2982 62.0229 84.5121 61.5526 84.5547 61.5526ZM91.7587 67.1957C91.8653 67.1746 91.9939 67.3667 92.5708 68.2219C93.7893 70.0385 94.7298 72.4758 94.9653 74.4423L95.0076 74.87L92.0795 76.003C86.842 78.0335 82.0113 80.043 78.7404 81.5391C77.8215 81.9668 76.2182 82.7361 75.1709 83.2495C74.1234 83.7836 73.2684 84.1898 73.2684 84.1685C73.2684 84.1472 73.9309 83.6555 74.7431 83.0568C81.135 78.4184 86.6712 73.3307 90.8181 68.2433C91.2671 67.7088 91.6734 67.2171 91.7158 67.1958L91.7587 67.1957ZM88.4455 68.0081C88.5311 68.0936 86.0942 70.851 84.4269 72.5396C80.3013 76.751 76.2184 80.043 71.1521 83.2495C70.5109 83.6555 69.9339 84.0188 69.8696 84.0618C69.7198 84.1472 69.9122 83.9333 72.1354 81.5178C73.5464 80 74.615 78.7175 75.8335 77.1359C76.6457 76.0887 76.7954 75.9389 77.9713 75.1049C81.1136 72.839 88.3599 67.9225 88.4455 68.0081Z" fill="url(#paint2_radial_41_2)"/>
<path d="M39.6537 129.529C39.4442 127.224 38.5121 125.433 36.8572 124.156C35.2233 122.857 32.8877 122.208 29.8503 122.208C27.8393 122.208 26.1635 122.469 24.8229 122.993C23.4822 123.517 22.4767 124.239 21.8064 125.161C21.1361 126.062 20.7904 127.099 20.7695 128.272C20.7276 129.235 20.9161 130.084 21.3351 130.817C21.775 131.55 22.4034 132.2 23.2204 132.765C24.0583 133.31 25.0638 133.792 26.2368 134.21C27.4099 134.629 28.7296 134.996 30.1959 135.31L35.7261 136.567C38.9101 137.258 41.7171 138.18 44.147 139.332C46.5978 140.484 48.6507 141.856 50.3056 143.448C51.9814 145.04 53.2487 146.873 54.1075 148.947C54.9664 151.021 55.4063 153.346 55.4272 155.923C55.4063 159.986 54.3799 163.474 52.3479 166.386C50.316 169.298 47.3938 171.529 43.5814 173.079C39.7899 174.629 35.2128 175.404 29.8503 175.404C24.4667 175.404 19.7745 174.597 15.7735 172.984C11.7725 171.371 8.66181 168.921 6.44137 165.632C4.22093 162.343 3.07929 158.185 3.01645 153.158H17.9102C18.0358 155.231 18.591 156.96 19.5755 158.342C20.56 159.725 21.9111 160.772 23.6288 161.484C25.3675 162.196 27.3785 162.553 29.6617 162.553C31.7565 162.553 33.537 162.27 35.0034 161.704C36.4906 161.139 37.6323 160.353 38.4283 159.348C39.2243 158.342 39.6328 157.19 39.6537 155.891C39.6328 154.676 39.2557 153.639 38.5226 152.781C37.7894 151.901 36.6582 151.147 35.1291 150.518C33.6208 149.869 31.6937 149.272 29.3475 148.727L22.6234 147.156C17.0513 145.878 12.6628 143.815 9.45782 140.966C6.25285 138.096 4.66083 134.221 4.68178 129.34C4.66083 125.36 5.72916 121.872 7.88675 118.877C10.0444 115.881 13.0294 113.546 16.8418 111.87C20.6543 110.194 25.0009 109.356 29.8817 109.356C34.8672 109.356 39.1929 110.205 42.8587 111.901C46.5455 113.577 49.4048 115.934 51.4367 118.971C53.4686 122.009 54.5055 125.528 54.5474 129.529H39.6537ZM87.8855 151.461H100.454L105.796 158.279L112.803 166.323L123.58 179.614H109.503L101.962 170.596L97.5004 164.186L87.8855 151.461ZM124.02 142.411C124.02 149.492 122.658 155.493 119.935 160.416C117.212 165.339 113.525 169.078 108.875 171.633C104.246 174.189 99.0505 175.467 93.2899 175.467C87.5084 175.467 82.3029 174.178 77.6735 171.602C73.0441 169.025 69.3678 165.286 66.6446 160.384C63.9424 155.462 62.5913 149.471 62.5913 142.411C62.5913 135.331 63.9424 129.33 66.6446 124.407C69.3678 119.484 73.0441 115.745 77.6735 113.19C82.3029 110.634 87.5084 109.356 93.2899 109.356C99.0505 109.356 104.246 110.634 108.875 113.19C113.525 115.745 117.212 119.484 119.935 124.407C122.658 129.33 124.02 135.331 124.02 142.411ZM108.121 142.411C108.121 138.222 107.524 134.682 106.33 131.791C105.157 128.9 103.46 126.711 101.24 125.224C99.04 123.737 96.3902 122.993 93.2899 122.993C90.2106 122.993 87.5608 123.737 85.3403 125.224C83.1199 126.711 81.4127 128.9 80.2187 131.791C79.0456 134.682 78.4591 138.222 78.4591 142.411C78.4591 146.601 79.0456 150.141 80.2187 153.032C81.4127 155.923 83.1199 158.112 85.3403 159.599C87.5608 161.086 90.2106 161.83 93.2899 161.83C96.3902 161.83 99.04 161.086 101.24 159.599C103.46 158.112 105.157 155.923 106.33 153.032C107.524 150.141 108.121 146.601 108.121 142.411ZM133.187 174.587V110.236H148.741V161.956H175.512V174.587H133.187Z" fill="white"/>
<defs>
<linearGradient id="paint0_linear_41_2" x1="63.2766" y1="127.835" x2="73.5029" y2="121.792" gradientUnits="userSpaceOnUse">
<stop stop-color="#909CA9"/>
<stop offset="1" stop-color="#EDEDEE"/>
</linearGradient>
<linearGradient id="paint1_linear_41_2" x1="63.5101" y1="13.9171" x2="71.7384" y2="13.9171" gradientUnits="userSpaceOnUse">
<stop stop-color="#939FAB"/>
<stop offset="1" stop-color="#DCDEE1"/>
</linearGradient>
<radialGradient id="paint2_radial_41_2" cx="0" cy="0" r="1" gradientUnits="userSpaceOnUse" gradientTransform="translate(105.03 51.6543) rotate(-171.457) scale(10.6086 21.2224)">
<stop stop-color="#EE352C"/>
<stop offset="1" stop-color="#A91D22"/>
</radialGradient>
</defs>
</svg>
